<svg xmlns="http://www.w3.org/2000/svg" viewBox="0 0 111.56 98.98"><defs><style>.cls-1{fill:#4db0cf;}.cls-2{fill:#f7b033;}.cls-3{fill:none;stroke:#3f1a13;stroke-width:1.06px;}.cls-4{font-size:6px;fill:#3f1a13;font-family:HelveticaNeue, Helvetica Neue;}.cls-5{fill:#755a53;}</style></defs><g id="Layer_2" data-name="Layer 2"><g id="Isolation_Mode" data-name="Isolation Mode"><path class="cls-1" d="M10.23,18.17A12.69,12.69,0,0,1,24.75,28.74a12.69,12.69,0,0,1-10,14.89A12.68,12.68,0,0,1,.21,33.06a12.69,12.69,0,0,1,10-14.89"/><path class="cls-2" d="M90.4.05a3.35,3.35,0,1,1-2.71,3.88A3.35,3.35,0,0,1,90.4.05"/><line class="cls-3" x1="12.8" y1="31.33" x2="90.87" y2="3.29"/><text class="cls-4" transform="translate(39.43 59.34)">The deeper the lean to the <tspan x="0" y="7.2">left, the more people </tspan><tspan x="0" y="14.4">believe that science </tspan><tspan x="0" y="21.6">benefits most people in </tspan><tspan x="0" y="28.8">their country.</tspan></text><path class="cls-5" d="M50.54,23,41.39,38.85A2.07,2.07,0,0,0,43.17,42h18.3a2.06,2.06,0,0,0,1.78-3.1L54.11,23A2.06,2.06,0,0,0,50.54,23Z"/></g></g></svg>